<svg id="Capa_1" enable-background="new 0 0 512 512" height="512" viewBox="0 0 512 512" width="512" xmlns="http://www.w3.org/2000/svg"><g><g><g fill="#fce8d0"><path d="m358.947 157.899 34.93 65.47h.01s36.96 39.01 68.11 32.63 40-60 40-60z"/><path d="m10.007 196.01c.52.92 33.88 59.58 59.99 59.99 26.32.41 48.11-32.63 48.11-32.63h.01l34.93-65.47z"/><path d="m169.847 240.62-51.73-17.25c-1.4 7.35-2.12 14.91-2.12 22.63 0 24.04 7.03 42.08 19.28 55.43 24.45 26.64 37.57 67.75 39.13 103.87l.13 2.94c.03-.02.07-.04.1-.06l41.36-26.18v-82.75z"/><path d="m393.877 223.37-49.13 16.38-48.75 59.5v82.75l41.36 26.18c.03.02.07.04.1.06l.13-2.94c1.56-36.12 14.68-77.23 39.13-103.87 12.25-13.35 19.28-31.39 19.28-55.43 0-7.72-.72-15.281-2.12-22.63z"/><path d="m256.767 462-43.67 16.16c9.41 12.69 23.26 23.84 42.9 23.84s33.49-11.15 42.9-23.84z"/></g><path d="m415.997 36c-3.77 0-7.45.35-11.03 1.01 17.77 4.07 31.03 19.98 31.03 38.99 0 22.09-17.91 40-40 40h-280c-22.09 0-40-17.91-40-40 0-19.01 13.26-34.92 31.03-38.99-3.58-.66-7.26-1.01-11.03-1.01-33.14 0-60 26.86-60 60s26.86 60 60 60h320c33.14 0 60-26.86 60-60s-26.86-60-60-60z" fill="#eefaff"/><path d="m395.997 156 106 40s-31.99 22.87-60 20c-24.95-2.56-72.86-48.15-83.05-58.1-.09-.08-.17-.17-.26-.25-.08-.09-.16-.17-.24-.24s-.15-.14-.22-.22c-.32-.32-.63-.64-.95-.94-.06-.06-.12-.12-.17-.16-.04-.04-.07-.07-.08-.08v-.01z" fill="#6d92ac"/><path d="m293.227 474.89c-10.9-7.56-23.19-12.89-36.46-12.89-1.145.225-16.611-1.945-38 12.89-6.42 4.448-14.283 7.11-22.77 7.11-22.09 0-40-17.91-40-40 0-12.999 6.053-25.429 18.64-33.82l41.36-26.18c-.031-87.739.078-82.972-.09-86-1.32-24.49-17.47-45.85-40.94-53.68-72.237-24.079-53.766-17.922-56.85-18.95 12.076-64.013 72.478-107.37 137.88-107.37 70.269 0 126.587 47.509 137.88 107.37-2.804.935 14.683-4.894-56.85 18.95-23.47 7.83-39.62 29.19-40.94 53.68-.17 3.056-.059-.483-.09 86 54.208 34.307 38.582 24.321 41.46 26.24 11.14 7.1 18.54 19.56 18.54 33.76 0 22.09-17.91 40-40 40-8.489 0-16.354-2.666-22.77-7.11z" fill="#6d92ac"/><path d="m315.997 70h-40v46c-13.99 0-26.01 0-40 0v-46h-40l60-60z" fill="#a0e5a5"/><path d="m346.427 248.16c4.95 24.75-13.98 47.84-39.22 47.84h-11.12c1.32-24.49 17.47-45.85 40.94-53.68l7.72-2.57z" fill="#eefaff"/><path d="m215.907 296h-8.68c-26.02 0-45.12-24.46-38.8-49.7l1.42-5.68 5.12 1.7c23.47 7.83 39.62 29.19 40.94 53.68z" fill="#eefaff"/><path d="m154.967 156v.01c-.01.01-.04.04-.08.08-.05.04-.11.1-.17.16-.32.3-.63.62-.95.94-.07.08-.14.15-.22.22s-.16.15-.24.24c-.09.08-.17.17-.26.25-10.19 9.95-58.1 55.54-83.05 58.1-27.8 2.85-59.53-19.67-59.99-19.99-.01-.01-.01-.01-.01-.01l106-40z" fill="#6d92ac"/></g><g><path d="m1.384 201.075c12.443 21.822 41.584 64.5 68.457 64.923 13.992.204 26.551-6.831 36.268-14.834.941 23.1 8.258 42.268 21.801 57.026 20.456 22.289 34.283 58.562 36.379 95.156-11.545 9.449-18.292 23.502-18.292 38.653 0 27.57 22.43 50 50 50 4.767 0 9.417-.664 13.888-1.959 12.783 14.389 28.59 21.96 46.112 21.96s33.33-7.571 46.113-21.961c4.481 1.3 9.126 1.961 13.887 1.961 27.57 0 50-22.43 50-50 0-15.144-6.74-29.191-18.276-38.641.833-14.438 3.57-29.413 8.001-43.477 1.659-5.269-1.266-10.884-6.533-12.543-5.265-1.654-10.883 1.266-12.543 6.533-3.772 11.975-6.439 24.559-7.904 37.02l-22.745-14.396v-70.496h1.21c31.449 0 55.085-28.682 49.068-59.554l29.327-9.776c.258 3.095.395 6.209.395 9.33 0 10.996-1.632 20.891-4.85 29.409-1.952 5.167.654 10.938 5.82 12.889 5.188 1.959 10.945-.674 12.889-5.82 3.968-10.505 6.016-22.43 6.121-35.443 1.49 1.101 3.041 2.208 4.65 3.305 19.75 13.466 37.705 18.666 53.377 15.457 37.393-7.658 47.416-65.493 47.856-68.151 0-.004.001-.008.002-.011 0-.002.001-.005.001-.006.755-4.569-1.795-9.27-6.336-10.984l-65.746-24.81c26.925-9.757 46.216-35.582 46.216-65.833 0-38.599-31.401-70-70-70-4.292 0-8.613.396-12.844 1.176-4.664.86-8.083 4.878-8.185 9.62-.102 4.741 3.143 8.902 7.766 9.962 13.696 3.137 23.263 15.162 23.263 29.242 0 16.542-13.458 30-30 30h-110v-26.002h30c4.045 0 7.691-2.437 9.239-6.173 1.548-3.737.691-8.038-2.168-10.898l-60-60c-3.906-3.904-10.236-3.904-14.143 0l-60 60c-2.859 2.86-3.716 7.161-2.168 10.898 1.548 3.736 5.194 6.173 9.239 6.173h30v26h-110c-16.542 0-30-13.458-30-30 0-14.08 9.566-26.105 23.263-29.242 4.623-1.06 7.867-5.221 7.766-9.962-.102-4.742-3.521-8.76-8.185-9.62-4.23-.781-8.551-1.176-12.843-1.176-38.599 0-70 31.401-70 70 0 30.251 19.291 56.077 46.216 65.833l-65.746 24.81c-5.775 2.178-8.225 9.093-5.083 14.432zm107.362 18.253c-6.185 8.66-22.362 26.676-38.266 26.676-.107 0-.219-.001-.326-.003-8.016-.125-19.607-10.865-30.394-24.15 10.085 3.259 20.843 5.161 31.258 4.098 11.657-1.196 26.595-9.54 41.229-20.021-1.403 4.395-2.566 8.867-3.501 13.4zm33.899 75.34c-11.203-12.209-16.648-28.128-16.648-48.669 0-3.12.137-6.234.395-9.329l31.627 10.546c-2.521 13.985.96 28.228 9.793 39.545 9.288 11.901 23.151 18.841 38.185 19.203v70.53l-22.733 14.389c-4.348-37.104-19.341-73.031-40.619-96.215zm34.648-40.668c13.313 6.231 23.041 17.852 26.887 31.838-8.12-.813-15.507-4.855-20.602-11.382-4.611-5.908-6.792-13.146-6.285-20.456zm78.704 238c-10.193 0-19.419-3.867-27.541-11.498 9.227-5.644 18.215-8.502 26.771-8.502.915.137 12.361-1.254 28.31 8.502-8.122 7.631-17.348 11.498-27.54 11.498zm51.776-206.016c4.037-14.858 14.712-27.065 29.27-33.005 1.777 17.345-11.631 32.676-29.27 33.005zm152.217-39.781c-19.7 4.048-46.116-17.117-56.928-27.766-.903-4.228-2.005-8.403-3.315-12.511 14.634 10.482 29.573 18.826 41.231 20.022 15.001 1.531 30.978-3.088 44.749-9.358-5.284 13.3-13.751 27.158-25.737 29.613zm18.617-48.342c-10.731 5.002-24.052 9.373-35.59 8.19-12.718-1.304-37.471-19.311-60.733-40.052h11.888zm-82.61-71.861c27.57 0 50-22.43 50-50 0-8.591-2.139-16.725-5.972-23.839 15.467 8.512 25.972 24.972 25.972 43.839 0 27.57-22.43 50-50 50h-55.017c-8.446-7.738-17.696-14.422-27.573-20zm-175.857-66 35.857-35.857 35.857 35.857h-15.857c-5.522 0-10 4.478-10 10v36h-20v-36c0-5.522-4.478-10-10-10zm35.857 66c62.643 0 112.468 40.418 126.106 90.754l-48.241 16.08c-29.234 9.753-47.865 36.596-47.865 66.416v82.75c0 3.428 1.756 6.616 4.651 8.449 52.359 33.142 39.399 25.021 41.53 26.285 8.655 5.562 13.818 14.997 13.818 25.266 0 16.542-13.458 30-30 30-.448 0-.894-.017-1.339-.036 7.759-14.196 10.896-26.939 11.06-27.62 1.293-5.362-2.003-10.75-7.362-12.052-5.361-1.3-10.765 1.99-12.076 7.347-.037.146-3.088 12.351-10.442 24.979-22.44-14.417-39.277-12.413-40.611-12.618-12.916 0-26.045 4.248-39.072 12.618-7.3-12.537-10.361-24.655-10.44-24.974-1.301-5.361-6.7-8.661-12.063-7.365-5.369 1.295-8.672 6.696-7.378 12.065.164.681 3.301 13.424 11.06 27.62-.445.019-.89.036-1.338.036-16.542 0-30-13.458-30-30 0-10.263 5.16-19.769 13.987-25.371l41.361-26.18c2.896-1.833 4.651-5.021 4.651-8.449v-82.75c0-29.916-18.728-56.695-47.879-66.42l-48.229-16.076c15.019-55.436 69.35-90.754 126.111-90.754zm-210-30c0-18.867 10.505-35.327 25.972-43.839-3.833 7.114-5.972 15.248-5.972 23.839 0 27.57 22.43 50 50 49.99h62.588c-9.877 5.588-19.127 12.272-27.572 20.01h-55.016c-27.57 0-50-22.43-50-50zm71.825 69.99h11.888c-23.263 20.741-48.015 38.758-60.733 40.062-11.309 1.157-24.566-3.078-35.567-8.198z"/><circle cx="364.997" cy="316" r="10"/></g></g></svg>